{"title":"Get Lucky 2013 WEBRip 480p x264 AAC - VYTO [P2PDL]","uid":8788918,"size":313442581,"categoryP":"video","categoryS":"movies","magnet":"?xt=urn:btih:50456e2004f23e5681dbc1eaca3476d5dbcfe7ea&amp;dn=Get+Lucky+2013+WEBRip+480p+x264+AAC+-+VYTO+%5BP2PDL%5D&amp;tr=udp%3A%2F%2Ftracker.openbittorrent.com%3A80&amp;tr=udp%3A%2F%2Fopen.demonii.com%3A1337&amp;tr=udp%3A%2F%2Ftracker.coppersurfer.tk%3A6969&amp;tr=udp%3A%2F%2Fexodus.desync.com%3A6969","seeders":1,"leechers":0,"uploader":"Vitamin_X","files":-1,"time":1375891338,"description":"_______ Visit us at our Semi Public Bittorrent Community ________\n  &lt;a href=&quot;\nhttp://p2pdl.com&quot; rel=&quot;nofollow&quot; target=&quot;_NEW&quot;&gt;\nhttp://p2pdl.com&lt;/a&gt;  _____________________________ &lt;a href=&quot; http://p2pdl.com&quot; rel=&quot;nofollow&quot; target=&quot;_NEW&quot;&gt; http://p2pdl.com&lt;/a&gt;\n\n\nGet Lucky 2013 WEBRip 480p x264 AAC - VYTO\n\n\nGenre: Action\nPlot: Lucky is a small time criminal and he's happy just \ngetting by until he agrees to look after some counterfeit \nmoney for a friend who is in a bit of trouble with the law \nTwo months go by without a word from him so Lucky burns the \n'funny money' to avoid problems for himself. The resulting \nfire means a trip to the emergency room where he meets Bridget \nand his charm has her agreeing to go out with him. Their \ndate goes well until the end when two hoods bundle him \ninto the back of their car. It appears that they had \nbought the 'funny money' from Lucky's friend and they \nwant it back - all Â£150,000 or Lucky will end up like \nhis friend. Get Lucky Lucky needs to score big so he \nteams up with an old mate who is planning a big casino \nheist with a couple of other gangsters who's day job \nis collecting protection money for 'Mr Big'. The are \nlooking to earn a bit of money 'on the side'. The \nheist goes almost according to plan but with one \nsmall problem - there's minimal cash and the rest is in bonds. \nDirector: Sacha Bennett\nStars: Luke Treadaway, Emily Atack, Craig Fairbrass\nRated: N/A\n\nInfo: &lt;a href=&quot;\nhttp://www.imdb.com/title/tt2175669/&quot; rel=&quot;nofollow&quot; target=&quot;_NEW&quot;&gt;\nhttp://www.imdb.com/title/tt2175669/&lt;/a&gt;\n\nGeneral\nFormat                         : MPEG-4\nFile size                      : 296 MiB\nDuration                       : 1h 25mn\nOverall bit rate mode          : Variable\nOverall bit rate               : 482 Kbps\n\nVideo\nFormat                         : AVC\nBit rate                       : 440 Kbps\nWidth                          : 720 pixels\nHeight                         : 400 pixels\nDisplay aspect ratio           : 16:9\nFrame rate mode                : Constant\nFrame rate                     : 23.976 fps\nBit depth                      : 10 bits\nStream size                    : 270 MiB (91%)\nWriting library                : x264 core 130 r2273 b3065e6\n\nAudio\nFormat                         : AAC\nBit rate                       : 38.9 Kbps\nChannel(s)                     : 2 channels\nChannel positions              : Front: L R\nSampling rate                  : 48.0 KHz / 24.0 KHz\nStream size                    : 23.9 MiB (8%)\nLanguage                       : English\n\nSubtitle                       : Yes (English)\n &lt;a href=&quot;\nhttp://ultraimg.com/images/8YSGv.png&quot; rel=&quot;nofollow&quot; target=&quot;_NEW&quot;&gt;\nhttp://ultraimg.com/images/8YSGv.png&lt;/a&gt; &lt;a href=&quot;\nhttp://ultraimg.com/images/Chdvu.png&quot; rel=&quot;nofollow&quot; target=&quot;_NEW&quot;&gt;\nhttp://ultraimg.com/images/Chdvu.png&lt;/a&gt; &lt;a href=&quot;\nhttp://ultraimg.com/images/fLjH.png&quot; rel=&quot;nofollow&quot; target=&quot;_NEW&quot;&gt;\nhttp://ultraimg.com/images/fLjH.png&lt;/a&gt; &lt;a href=&quot;\nhttp://ultraimg.com/images/167KQ.png&quot; rel=&quot;nofollow&quot; target=&quot;_NEW&quot;&gt;\nhttp://ultraimg.com/images/167KQ.png&lt;/a&gt; &lt;a href=&quot;\nhttp://ultraimg.com/images/TULJY.png&quot; rel=&quot;nofollow&quot; target=&quot;_NEW&quot;&gt;\nhttp://ultraimg.com/images/TULJY.png&lt;/a&gt; &lt;a href=&quot;\nhttp://ultraimg.com/images/xiBMg.png&quot; rel=&quot;nofollow&quot; target=&quot;_NEW&quot;&gt;\nhttp://ultraimg.com/images/xiBMg.png&lt;/a&gt; &lt;a href=&quot;\nhttp://ultraimg.com/images/kRU0n.png&quot; rel=&quot;nofollow&quot; target=&quot;_NEW&quot;&gt;\nhttp://ultraimg.com/images/kRU0n.png&lt;/a&gt; &lt;a href=&quot;\nhttp://ultraimg.com/images/LxP6n.png&quot; rel=&quot;nofollow&quot; target=&quot;_NEW&quot;&gt;\nhttp://ultraimg.com/images/LxP6n.png&lt;/a&gt;\n\n\n----------------------------------------------------------------------------------------------------\n\n\nEncoded using revolutionary 10bit encoding, which enables us to provide you more crispier \nand sharper images at small sizes, just make sure you follow our instructions without a fault.\nRecommend to you to use latest version of VLC player. Install K-Lite Codec Pack or shark007 codecs\nin case of any kind of problem in playback (For non-VLC Media Player users). Alternatively, install\nCore AVC codecs, the fastest decoder that there is coupled with Community Center Codec Pack and play\non Windows Media Player Classic. Check sample to be sure.\nEnjoy!\n\nEncoder Notes:Looking For Early Access To Anything You Can Provide DVDScr, R5, DVDR, BluRay, Direct\nAudio, Music Releases and Seedboxes. We require dedicated servers, so as to do more \nand fast releases of movies.\nIf You Got anything to offer please contact us at &quot;&lt;a class=&quot;__cf_email__&quot; href=&quot;/cdn-cgi/l/email-protection&quot; data-cfemail=&quot;3f4f4d587f574a4c57115c5052&quot;&gt;[email&amp;#160;protected]&lt;/a&gt;&lt;script cf-hash='f9e31' type=&quot;text/javascript&quot;&gt;\n/* &lt;![CDATA[ */!function(){try{var t=&quot;currentScript&quot;in document?document.currentScript:function(){for(var t=document.getElementsByTagName(&quot;script&quot;),e=t.length;e--;)if(t[e].getAttribute(&quot;cf-hash&quot;))return t[e]}();if(t&amp;&amp;t.previousSibling){var e,r,n,i,c=t.previousSibling,a=c.getAttribute(&quot;data-cfemail&quot;);if(a){for(e=&quot;&quot;,r=parseInt(a.substr(0,2),16),n=2;a.length-n;n+=2)i=parseInt(a.substr(n,2),16)^r,e+=String.fromCharCode(i);e=document.createTextNode(e),c.parentNode.replaceChild(e,c)}}}catch(u){}}();/* ]]&gt; */&lt;/script&gt;&quot;.\n\nFace book Fan Page:  \nSearch P2PDL on FB.","torrent":{"xt":"urn:btih:50456e2004f23e5681dbc1eaca3476d5dbcfe7ea","amp;dn":"Get+Lucky+2013+WEBRip+480p+x264+AAC+-+VYTO+%5BP2PDL%5D","amp;tr":["udp%3A%2F%2Ftracker.openbittorrent.com%3A80","udp%3A%2F%2Fopen.demonii.com%3A1337","udp%3A%2F%2Ftracker.coppersurfer.tk%3A6969","udp%3A%2F%2Fexodus.desync.com%3A6969"],"infoHash":"50456e2004f23e5681dbc1eaca3476d5dbcfe7ea","infoHashBuffer":{"type":"Buffer","data":[80,69,110,32,4,242,62,86,129,219,193,234,202,52,118,213,219,207,231,234]},"announce":[],"urlList":[]}}